<svg height="512pt" viewBox="-104 0 512 512" width="512pt" xmlns="http://www.w3.org/2000/svg"><g fill="#da4453"><path d="m71.984375 8c22.078125 0 40 7.121094 40 16 0 8.800781-17.921875 16-40 16-22.082031 0-40-7.199219-40-16 0-8.878906 17.917969-16 40-16zm0 0"/><path d="m151.984375 8c22.078125 0 40 7.121094 40 16 0 8.800781-17.921875 16-40 16-22.082031 0-40-7.199219-40-16 0-8.878906 17.917969-16 40-16zm0 0"/><path d="m271.984375 24c0 8.800781-17.921875 16-40 16-22.082031 0-40-7.199219-40-16 0-8.878906 17.917969-16 40-16 22.078125 0 40 7.121094 40 16zm0 0"/></g><path d="m231.984375 256c0 22.078125-8.960937 42.078125-23.441406 56.558594-14.480469 14.480468-34.480469 23.441406-56.558594 23.441406-22.160156 0-42.160156-8.960938-56.558594-23.441406-14.480469-14.480469-23.441406-34.480469-23.441406-56.558594s8.960937-42.078125 23.441406-56.558594c4.878907-4.960937 10.484375-9.195312 16.558594-12.722656 11.757813-6.796875 25.359375-10.71875 40-10.71875 14.558594 0 28.238281 3.921875 40 10.71875 6.078125 3.519531 11.601563 7.761719 16.558594 12.722656 14.480469 14.480469 23.441406 34.480469 23.441406 56.558594zm0 0" fill="#f5f7fa"/><path d="m231.984375 256v32c0 29.601562-16.082031 55.441406-40 69.28125-11.761719 6.796875-25.441406 10.71875-40 10.71875-14.640625 0-28.242187-3.921875-40-10.71875-23.921875-13.839844-40-39.679688-40-69.28125v-32c0 22.078125 8.960937 42.078125 23.441406 56.558594 14.398438 14.480468 34.398438 23.441406 56.558594 23.441406 22.078125 0 42.078125-8.960938 56.558594-23.441406 14.480469-14.480469 23.441406-34.480469 23.441406-56.558594zm0 0" fill="#656d78"/><path d="m231.984375 40c-22.082031 0-40-7.199219-40-16 0 8.800781-17.921875 16-40 16-22.082031 0-40-7.199219-40-16 0 8.800781-17.921875 16-40 16-22.082031 0-40-7.199219-40-16v464c0 8.800781 17.917969 16 40 16 22.078125 0 40-7.199219 40-16 0 8.800781 17.917969 16 40 16 22.078125 0 40-7.199219 40-16 0 8.800781 17.917969 16 40 16 22.078125 0 40-7.199219 40-16v-464c0 8.800781-17.921875 16-40 16zm0 248c0 29.601562-16.082031 55.441406-40 69.28125-11.761719 6.796875-25.441406 10.71875-40 10.71875-14.640625 0-28.242187-3.921875-40-10.71875-23.921875-13.839844-40-39.679688-40-69.28125v-32c0-22.078125 8.960937-42.078125 23.441406-56.558594 4.878907-4.960937 10.484375-9.195312 16.558594-12.722656 11.757813-6.796875 25.359375-10.71875 40-10.71875 14.558594 0 28.238281 3.921875 40 10.71875 6.078125 3.519531 11.601563 7.761719 16.558594 12.722656 14.480469 14.480469 23.441406 34.480469 23.441406 56.558594zm0 0" fill="#ed5565"/><path d="m152 48c-23.121094 0-48-7.503906-48-24s24.878906-24 48-24 48 7.503906 48 24-24.878906 24-48 24zm-31.800781-24c2.058593 2.617188 13.015625 8 31.800781 8s29.742188-5.382812 31.800781-8c-2.058593-2.617188-13.015625-8-31.800781-8s-29.742188 5.382812-31.800781 8zm0 0"/><path d="m152 512c-23.121094 0-48-7.503906-48-24 0-4.425781 3.574219-8 8-8s8 3.574219 8 8c1.007812 1.96875 12.128906 8 32 8s30.992188-6.03125 32.070312-8.433594c0-4.421875 3.546876-7.789062 7.96875-7.789062 4.417969 0 7.960938 3.796875 7.960938 8.214844 0 16.503906-24.878906 24.007812-48 24.007812zm0 0"/><path d="m112 496c-4.425781 0-8-3.574219-8-8v-130.664062c0-4.425782 3.574219-8 8-8s8 3.574218 8 8v130.664062c0 4.425781-3.574219 8-8 8zm0 0"/><path d="m192 496c-4.425781 0-8-3.574219-8-8v-130.679688c0-4.425781 3.574219-8 8-8s8 3.574219 8 8v130.679688c0 4.425781-3.574219 8-8 8zm0 0"/><path d="m232 48c-23.121094 0-48-7.503906-48-24s24.878906-24 48-24 48 7.503906 48 24-24.878906 24-48 24zm-31.800781-24c2.058593 2.617188 13.015625 8 31.800781 8s29.742188-5.382812 31.800781-8c-2.058593-2.617188-13.015625-8-31.800781-8s-29.742188 5.382812-31.800781 8zm0 0"/><path d="m232 512c-23.121094 0-48-7.503906-48-24 0-4.425781 3.574219-8 8-8s8 3.574219 8 8c1.007812 1.96875 12.128906 8 32 8s30.992188-6.03125 32.070312-8.433594c0-4.421875 3.546876-7.789062 7.96875-7.789062 4.417969 0 7.960938 3.796875 7.960938 8.214844 0 16.503906-24.878906 24.007812-48 24.007812zm0 0"/><path d="m272 496c-4.425781 0-8-3.574219-8-8v-464c0-4.425781 3.574219-8 8-8s8 3.574219 8 8v464c0 4.425781-3.574219 8-8 8zm0 0"/><path d="m32 496c-4.425781 0-8-3.574219-8-8v-464c0-4.425781 3.574219-8 8-8s8 3.574219 8 8v464c0 4.425781-3.574219 8-8 8zm0 0"/><path d="m72 48c-23.121094 0-48-7.503906-48-24s24.878906-24 48-24 48 7.503906 48 24-24.878906 24-48 24zm-31.800781-24c2.058593 2.617188 13.015625 8 31.800781 8s29.742188-5.382812 31.800781-8c-2.058593-2.617188-13.015625-8-31.800781-8s-29.742188 5.382812-31.800781 8zm0 0"/><path d="m72 512c-23.121094 0-48-7.503906-48-24 0-4.425781 3.574219-8 8-8s8 3.574219 8 8c1.007812 1.96875 12.128906 8 32 8s30.992188-6.03125 32.070312-8.433594c0-4.421875 3.546876-7.789062 7.96875-7.789062 4.417969 0 7.960938 3.796875 7.960938 8.214844 0 16.503906-24.878906 24.007812-48 24.007812zm0 0"/><path d="m151.992188 344.03125c-48.527344 0-88.007813-39.480469-88.007813-88 0-48.527344 39.480469-88.007812 88.007813-88.007812 48.519531 0 88 39.480468 88 88.007812 0 48.519531-39.480469 88-88 88zm0-160.007812c-39.703126 0-72.007813 32.304687-72.007813 72.007812s32.304687 72 72.007813 72c39.703124 0 72-32.296875 72-72s-32.296876-72.007812-72-72.007812zm0 0"/><path d="m151.992188 376.03125c-48.527344 0-88.007813-39.480469-88.007813-88 0-4.421875 3.574219-8 8-8 4.421875 0 8 3.578125 8 8 0 39.703125 32.304687 72 72.007813 72 39.703124 0 72-32.296875 72-72 0-4.421875 3.574218-8 8-8 4.421874 0 8 3.578125 8 8 0 48.519531-39.480469 88-88 88zm0 0"/><path d="m112 194.769531c-4.425781 0-8-3.578125-8-8v-162.769531c0-4.425781 3.574219-8 8-8s8 3.574219 8 8v162.769531c0 4.414063-3.574219 8-8 8zm0 0"/><path d="m192 194.769531c-4.425781 0-8-3.578125-8-8v-162.769531c0-4.425781 3.574219-8 8-8s8 3.574219 8 8v162.769531c0 4.414063-3.574219 8-8 8zm0 0"/><path d="m71.984375 296.03125c-4.425781 0-8-3.574219-8-8v-32c0-4.421875 3.574219-8 8-8 4.421875 0 8 3.578125 8 8v32c0 4.425781-3.578125 8-8 8zm0 0"/><path d="m231.992188 296.03125c-4.425782 0-8-3.574219-8-8v-32c0-4.421875 3.574218-8 8-8 4.421874 0 8 3.578125 8 8v32c0 4.425781-3.578126 8-8 8zm0 0"/><path d="m151.992188 192.023438c-4.425782 0-8-3.574219-8-8v-8c0-4.421876 3.574218-8 8-8 4.421874 0 8 3.578124 8 8v8c0 4.425781-3.578126 8-8 8zm0 0"/><path d="m151.992188 344.03125c-4.425782 0-8-3.574219-8-8v-8c0-4.421875 3.574218-8 8-8 4.421874 0 8 3.578125 8 8v8c0 4.425781-3.578126 8-8 8zm0 0"/><path d="m101.078125 213.121094c-2.046875 0-4.101563-.785156-5.664063-2.34375l-5.652343-5.664063c-3.121094-3.136719-3.121094-8.191406.007812-11.320312 3.125-3.113281 8.191407-3.121094 11.320313.007812l5.652344 5.664063c3.121093 3.136718 3.121093 8.191406-.007813 11.320312-1.566406 1.550782-3.605469 2.335938-5.65625 2.335938zm0 0"/><path d="m208.558594 320.601562c-2.046875 0-4.09375-.785156-5.65625-2.34375l-5.65625-5.65625c-3.125-3.128906-3.125-8.1875 0-11.3125 3.128906-3.128906 8.1875-3.128906 11.3125 0l5.65625 5.65625c3.128906 3.125 3.128906 8.183594 0 11.3125-1.558594 1.566407-3.605469 2.34375-5.65625 2.34375zm0 0"/><path d="m79.992188 264.03125h-8.007813c-4.425781 0-8-3.574219-8-8 0-4.421875 3.574219-8 8-8h8.007813c4.421874 0 8 3.578125 8 8 0 4.425781-3.578126 8-8 8zm0 0"/><path d="m232 264.03125h-8c-4.425781 0-8-3.574219-8-8 0-4.421875 3.574219-8 8-8h8c4.425781 0 8 3.578125 8 8 0 4.425781-3.574219 8-8 8zm0 0"/><path d="m95.425781 320.609375c-2.050781 0-4.089843-.785156-5.648437-2.335937-3.136719-3.121094-3.136719-8.183594-.015625-11.3125l5.652343-5.671876c3.128907-3.136718 8.1875-3.128906 11.3125-.015624 3.136719 3.117187 3.136719 8.183593.015626 11.3125l-5.652344 5.671874c-1.570313 1.574219-3.609375 2.351563-5.664063 2.351563zm0 0"/><path d="m202.902344 213.113281c-2.046875 0-4.09375-.785156-5.65625-2.34375-3.125-3.128906-3.125-8.183593 0-11.3125l5.65625-5.65625c3.128906-3.128906 8.1875-3.128906 11.3125 0 3.128906 3.128907 3.128906 8.183594 0 11.3125l-5.65625 5.65625c-1.558594 1.558594-3.605469 2.34375-5.65625 2.34375zm0 0"/><path d="m151.984375 264.03125c-4.425781 0-8-3.574219-8-8v-40.007812c0-4.421876 3.574219-8 8-8 4.421875 0 8 3.578124 8 8v40.007812c0 4.425781-3.578125 8-8 8zm0 0"/><path d="m272 296.023438h-40c-4.425781 0-8-3.574219-8-8 0-4.421876 3.574219-8 8-8h40c4.425781 0 8 3.578124 8 8 0 4.425781-3.574219 8-8 8zm0 0"/><path d="m271.976562 296.023438c-4.425781 0-8-3.574219-8-8 0-4.421876 3.574219-8 8-8 8.824219 0 15.992188-7.167969 15.992188-15.992188 0-4.421875 3.574219-8 8-8 4.421875 0 8 3.578125 8 8 0 17.640625-14.351562 31.992188-31.992188 31.992188zm0 0"/><path d="m272 264.03125h-40c-4.425781 0-8-3.574219-8-8 0-4.421875 3.574219-8 8-8h40c4.425781 0 8 3.578125 8 8 0 4.425781-3.574219 8-8 8zm0 0"/><path d="m271.976562 264.03125c-4.425781 0-8-3.574219-8-8 0-4.421875 3.574219-8 8-8 8.824219 0 15.992188-7.167969 15.992188-15.992188 0-8.824218-7.167969-15.992187-15.992188-15.992187-4.425781 0-8-3.574219-8-8 0-4.421875 3.574219-8 8-8 17.640626 0 31.992188 14.351563 31.992188 31.992187 0 17.640626-14.351562 31.992188-31.992188 31.992188zm0 0"/><path d="m295.96875 272.03125c-4.425781 0-8-3.574219-8-8v-31.992188c0-4.421874 3.574219-8 8-8 4.421875 0 8 3.578126 8 8v31.992188c0 4.425781-3.578125 8-8 8zm0 0"/><path d="m71.96875 296.023438h-40c-4.425781 0-8-3.574219-8-8 0-4.421876 3.574219-8 8-8h40c4.421875 0 8 3.578124 8 8 0 4.425781-3.578125 8-8 8zm0 0"/><path d="m31.992188 296.023438c-17.640626 0-31.992188-14.351563-31.992188-31.992188 0-4.421875 3.574219-8 8-8s8 3.578125 8 8c0 8.824219 7.167969 15.992188 15.992188 15.992188 4.421874 0 8 3.578124 8 8 0 4.425781-3.578126 8-8 8zm0 0"/><path d="m71.96875 264.03125h-40c-4.425781 0-8-3.574219-8-8 0-4.421875 3.574219-8 8-8h40c4.421875 0 8 3.578125 8 8 0 4.425781-3.578125 8-8 8zm0 0"/><path d="m31.992188 264.03125c-17.640626 0-31.992188-14.351562-31.992188-31.992188 0-17.640624 14.351562-31.992187 31.992188-31.992187 4.421874 0 8 3.578125 8 8 0 4.425781-3.578126 8-8 8-8.824219 0-15.992188 7.167969-15.992188 15.992187 0 8.824219 7.167969 15.992188 15.992188 15.992188 4.421874 0 8 3.578125 8 8 0 4.425781-3.578126 8-8 8zm0 0"/><path d="m8 272.03125c-4.425781 0-8-3.574219-8-8v-31.992188c0-4.421874 3.574219-8 8-8s8 3.578126 8 8v31.992188c0 4.425781-3.574219 8-8 8zm0 0"/></svg>