<?xml version="1.0" encoding="iso-8859-1"?>
<!-- Generator: Adobe Illustrator 19.0.0, SVG Export Plug-In . SVG Version: 6.00 Build 0)  -->
<svg version="1.1" id="Layer_1" xmlns="http://www.w3.org/2000/svg" xmlns:xlink="http://www.w3.org/1999/xlink" x="0px" y="0px"
	 viewBox="0 0 504 504" style="enable-background:new 0 0 504 504;" xml:space="preserve">
<g>
	<path style="fill:#C3D7DD;" d="M44,372c-1.6,0-2.4-0.8-3.2-1.6c-0.8-1.6-0.8-4,1.6-5.6l6.4-4c-0.8,0-0.8,0-0.8-0.8
		c-1.6-0.8-2.4-3.2-1.6-5.6l8-13.6c0.8-1.6,3.2-2.4,5.6-1.6c1.6,0.8,2.4,3.2,1.6,5.6l-7.2,12.8l2.4-1.6c0.8-0.8,3.2,0,4.8,2.4
		c0.8,1.6,0.8,4-1.6,5.6l-13.6,8C45.6,372,44.8,372,44,372z M72,356c-1.6,0-2.4-0.8-3.2-1.6c-0.8-1.6-0.8-4,1.6-5.6l13.6-8
		c1.6-0.8,4-0.8,5.6,1.6c0.8,1.6,0.8,4-1.6,5.6l-13.6,8C73.6,356,72.8,356,72,356z M99.2,340c-1.6,0-2.4-0.8-3.2-1.6
		c-0.8-1.6-0.8-4,1.6-5.6l13.6-8c1.6-0.8,4-0.8,5.6,1.6c0.8,1.6,0.8,4-1.6,5.6l-13.6,8C100.8,340,100,340,99.2,340z M65.6,333.6
		c-0.8,0-1.6,0-2.4-0.8c-1.6-0.8-2.4-3.2-1.6-5.6l8-13.6c0.8-1.6,3.2-2.4,5.6-1.6c1.6,0.8,2.4,3.2,1.6,5.6l-8,13.6
		C68.8,332.8,67.2,333.6,65.6,333.6z M127.2,324c-1.6,0-2.4-0.8-3.2-1.6c-0.8-1.6-0.8-4,1.6-5.6l13.6-8c1.6-0.8,4-0.8,5.6,1.6
		c0.8,1.6,0.8,4-1.6,5.6l-13.6,8C128.8,324,128,324,127.2,324z M155.2,308c-1.6,0-2.4-0.8-3.2-1.6c-0.8-1.6-0.8-4,1.6-5.6l13.6-8
		c1.6-0.8,4-0.8,5.6,1.6c0.8,1.6,0.8,4-1.6,5.6l-13.6,8C156,308,156,308,155.2,308z M82.4,305.6c-0.8,0-1.6,0-2.4-0.8
		c-1.6-0.8-2.4-3.2-1.6-5.6l8-13.6c0.8-1.6,3.2-2.4,5.6-1.6c1.6,0.8,2.4,3.2,1.6,5.6l-8,13.6C84.8,304.8,83.2,305.6,82.4,305.6z
		 M182.4,292c-1.6,0-2.4-0.8-3.2-1.6c-0.8-1.6-0.8-4,1.6-5.6l13.6-8c1.6-0.8,4-0.8,5.6,1.6c0.8,1.6,0.8,4-1.6,5.6l-13.6,8
		C184,292,183.2,292,182.4,292z M98.4,278.4c-0.8,0-1.6,0-2.4-0.8c-1.6-0.8-2.4-3.2-1.6-5.6l8-13.6c0.8-1.6,3.2-2.4,5.6-1.6
		s2.4,3.2,1.6,5.6l-8,13.6C100.8,277.6,100,278.4,98.4,278.4z M210.4,276c-1.6,0-2.4-0.8-3.2-1.6c-0.8-1.6-0.8-4,1.6-5.6l13.6-8
		c1.6-0.8,4-0.8,5.6,1.6c0.8,1.6,0.8,4-1.6,5.6l-13.6,8C212,276,211.2,276,210.4,276z M238.4,260c-1.6,0-2.4-0.8-3.2-1.6
		c-0.8-1.6-0.8-4,1.6-5.6l13.6-8c1.6-0.8,4-0.8,5.6,1.6c0.8,1.6,0.8,4-1.6,5.6l-13.6,8C239.2,260,239.2,260,238.4,260z M114.4,250.4
		c-0.8,0-1.6,0-2.4-0.8c-1.6-0.8-2.4-3.2-1.6-5.6l8-13.6c0.8-1.6,3.2-2.4,5.6-1.6c1.6,0.8,2.4,3.2,1.6,5.6l-8,13.6
		C117.6,249.6,116,250.4,114.4,250.4z M252,241.6c-2.4,0-4-1.6-4-4v-16c0-2.4,1.6-4,4-4s4,1.6,4,4v16C256,240,254.4,241.6,252,241.6
		z M130.4,223.2c-0.8,0-1.6,0-2.4-0.8c-1.6-0.8-2.4-3.2-1.6-5.6l8-13.6c0.8-1.6,3.2-2.4,5.6-1.6c1.6,0.8,2.4,3.2,1.6,5.6l-8,13.6
		C133.6,222.4,132,223.2,130.4,223.2z M252,209.6c-2.4,0-4-1.6-4-4v-16c0-2.4,1.6-4,4-4s4,1.6,4,4v16C256,208,254.4,209.6,252,209.6
		z M147.2,195.2c-0.8,0-1.6,0-2.4-0.8c-1.6-0.8-2.4-3.2-1.6-5.6l8-13.6c0.8-1.6,4-2.4,5.6-1.6c1.6,0.8,2.4,3.2,1.6,5.6l-8,13.6
		C149.6,194.4,148,195.2,147.2,195.2z M252,177.6c-2.4,0-4-1.6-4-4v-16c0-2.4,1.6-4,4-4s4,1.6,4,4v16C256,176,254.4,177.6,252,177.6
		z M163.2,168c-0.8,0-1.6,0-2.4-0.8c-1.6-0.8-2.4-3.2-1.6-5.6l8-13.6c0.8-1.6,3.2-2.4,5.6-1.6c1.6,0.8,2.4,3.2,1.6,5.6l-8,13.6
		C165.6,167.2,164.8,168,163.2,168z M252,145.6c-2.4,0-4-1.6-4-4v-16c0-2.4,1.6-4,4-4s4,1.6,4,4v16C256,144,254.4,145.6,252,145.6z
		 M179.2,140c-0.8,0-1.6,0-2.4-0.8c-1.6-0.8-2.4-3.2-1.6-5.6l8-13.6c0.8-1.6,3.2-2.4,5.6-1.6c1.6,0.8,2.4,3.2,1.6,5.6l-8,13.6
		C182.4,139.2,180.8,140,179.2,140z M252,113.6c-2.4,0-4-1.6-4-4v-16c0-2.4,1.6-4,4-4s4,1.6,4,4v16C256,112,254.4,113.6,252,113.6z
		 M196,112.8c-0.8,0-1.6,0-2.4-0.8c-1.6-0.8-2.4-3.2-1.6-5.6l8-13.6c0.8-1.6,3.2-2.4,5.6-1.6c1.6,0.8,2.4,3.2,1.6,5.6l-8,13.6
		C198.4,112,196.8,112.8,196,112.8z M212,84.8c-0.8,0-1.6,0-2.4-0.8c-1.6-0.8-2.4-3.2-1.6-5.6l8-13.6c0.8-1.6,4-2.4,5.6-1.6
		s2.4,3.2,1.6,5.6l-8,13.6C214.4,84,213.6,84.8,212,84.8z M252,81.6c-2.4,0-4-1.6-4-4v-16c0-2.4,1.6-4,4-4s4,1.6,4,4v16
		C256,80,254.4,81.6,252,81.6z M228,57.6c-0.8,0-1.6,0-2.4-0.8c-1.6-0.8-2.4-3.2-1.6-5.6l8-13.6c1.6-1.6,4-2.4,6.4-1.6
		c1.6,0.8,2.4,3.2,1.6,5.6l-8,13.6C230.4,56.8,229.6,57.6,228,57.6z M252,49.6c-2.4,0-4-1.6-4-4v-16c0-2.4,1.6-4,4-4s4,1.6,4,4v16
		C256,48,254.4,49.6,252,49.6z M244,29.6c-0.8,0-1.6,0-2.4-0.8c-1.6-0.8-2.4-3.2-1.6-5.6l8-12.8c0.8-1.6,2.4-2.4,4.8-1.6
		c1.6,0.8,3.2,2.4,3.2,4v0.8c0,1.6-0.8,2.4-1.6,3.2L248,28C247.2,28.8,245.6,29.6,244,29.6z"/>
	<path style="fill:#C3D7DD;" d="M460,372c-0.8,0-1.6,0-1.6-0.8l-13.6-8c-1.6-0.8-2.4-3.2-1.6-5.6c0.8-1.6,3.2-2.4,5.6-1.6l2.4,1.6
		l-7.2-12.8c-0.8-1.6-0.8-4,1.6-5.6c1.6-0.8,4-0.8,5.6,1.6l8,13.6c0.8,1.6,0.8,4-1.6,5.6c0,0-0.8,0-0.8,0.8l6.4,4
		c1.6,0.8,2.4,3.2,1.6,5.6C462.4,371.2,461.6,372,460,372z M432,356c-0.8,0-1.6,0-1.6-0.8l-13.6-8c-1.6-0.8-2.4-3.2-1.6-5.6
		c0.8-1.6,3.2-2.4,5.6-1.6l13.6,8c1.6,0.8,2.4,3.2,1.6,5.6C435.2,355.2,433.6,356,432,356z M404.8,340c-0.8,0-1.6,0-1.6-0.8l-13.6-8
		c-1.6-0.8-2.4-3.2-1.6-5.6c0.8-1.6,3.2-2.4,5.6-1.6l13.6,8c1.6,0.8,2.4,3.2,1.6,5.6C407.2,339.2,405.6,340,404.8,340z M438.4,333.6
		c-1.6,0-2.4-0.8-3.2-1.6l-8-13.6c-0.8-1.6-0.8-4,1.6-5.6c1.6-0.8,4-0.8,5.6,1.6l8,13.6c0.8,1.6,0.8,4-1.6,5.6
		C439.2,332.8,438.4,333.6,438.4,333.6z M376.8,324c-0.8,0-1.6,0-1.6-0.8l-13.6-8c-1.6-0.8-2.4-3.2-1.6-5.6c0.8-1.6,3.2-2.4,5.6-1.6
		l13.6,8c1.6,0.8,2.4,3.2,1.6,5.6C379.2,323.2,378.4,324,376.8,324z M348.8,308c-0.8,0-1.6,0-1.6-0.8l-13.6-8
		c-1.6-0.8-2.4-3.2-1.6-5.6c0.8-1.6,3.2-2.4,5.6-1.6l13.6,8c1.6,0.8,2.4,3.2,1.6,5.6C352,307.2,350.4,308,348.8,308z M421.6,305.6
		c-1.6,0-2.4-0.8-3.2-1.6l-8-13.6c-0.8-1.6-0.8-4,1.6-5.6c1.6-0.8,4-0.8,5.6,1.6l8,13.6c0.8,1.6,0.8,4-1.6,5.6
		C423.2,305.6,422.4,305.6,421.6,305.6z M321.6,292c-0.8,0-1.6,0-1.6-0.8l-13.6-8c-1.6-0.8-2.4-3.2-1.6-5.6c0.8-1.6,3.2-2.4,5.6-1.6
		l13.6,8c1.6,0.8,2.4,3.2,1.6,5.6C324,291.2,322.4,292,321.6,292z M405.6,278.4c-1.6,0-2.4-0.8-3.2-1.6l-8-13.6
		c-0.8-1.6-0.8-4,1.6-5.6c1.6-0.8,4-0.8,5.6,1.6l8,13.6c0.8,1.6,0.8,4-1.6,5.6C407.2,277.6,406.4,278.4,405.6,278.4z M293.6,276
		c-0.8,0-1.6,0-1.6-0.8l-13.6-8c-1.6-0.8-2.4-3.2-1.6-5.6c0.8-1.6,3.2-2.4,5.6-1.6l13.6,8c1.6,0.8,2.4,3.2,1.6,5.6
		C296,275.2,295.2,276,293.6,276z M265.6,260c-0.8,0-1.6,0-1.6-0.8l-13.6-8c-1.6-0.8-2.4-3.2-1.6-5.6c0.8-1.6,3.2-2.4,5.6-1.6
		l13.6,8c1.6,0.8,2.4,3.2,1.6,5.6C268.8,259.2,267.2,260,265.6,260z M389.6,250.4c-1.6,0-2.4-0.8-3.2-1.6l-8-13.6
		c-0.8-1.6-0.8-4,1.6-5.6c1.6-0.8,4-0.8,5.6,1.6l8,13.6c0.8,1.6,0.8,4-1.6,5.6C391.2,250.4,390.4,250.4,389.6,250.4z M252,241.6
		c-2.4,0-4-1.6-4-4v-16c0-2.4,1.6-4,4-4s4,1.6,4,4v16C256,240,254.4,241.6,252,241.6z M373.6,223.2c-1.6,0-2.4-0.8-3.2-1.6l-8-13.6
		c-0.8-1.6-0.8-4,1.6-5.6c1.6-0.8,4-0.8,5.6,1.6l8,13.6c0.8,1.6,0.8,4-1.6,5.6C374.4,222.4,373.6,223.2,373.6,223.2z M252,209.6
		c-2.4,0-4-1.6-4-4v-16c0-2.4,1.6-4,4-4s4,1.6,4,4v16C256,208,254.4,209.6,252,209.6z M356.8,195.2c-1.6,0-2.4-0.8-3.2-1.6l-8-13.6
		c-0.8-1.6-0.8-4,1.6-5.6c1.6-0.8,4-0.8,5.6,1.6l8,13.6c0.8,1.6,0.8,4-1.6,5.6C358.4,195.2,357.6,195.2,356.8,195.2z M252,177.6
		c-2.4,0-4-1.6-4-4v-16c0-2.4,1.6-4,4-4s4,1.6,4,4v16C256,176,254.4,177.6,252,177.6z M340.8,168c-1.6,0-2.4-0.8-3.2-1.6l-8-13.6
		c-0.8-1.6-0.8-4,1.6-5.6c1.6-0.8,4-0.8,5.6,1.6l8,13.6c0.8,1.6,0.8,4-1.6,5.6C342.4,167.2,341.6,168,340.8,168z M252,145.6
		c-2.4,0-4-1.6-4-4v-16c0-2.4,1.6-4,4-4s4,1.6,4,4v16C256,144,254.4,145.6,252,145.6z M324.8,140c-1.6,0-2.4-0.8-3.2-1.6l-8-13.6
		c-0.8-1.6-0.8-4,1.6-5.6c1.6-0.8,4-0.8,5.6,1.6l8,13.6c0.8,1.6,0.8,4-1.6,5.6C325.6,140,325.6,140,324.8,140z M252,113.6
		c-2.4,0-4-1.6-4-4v-16c0-2.4,1.6-4,4-4s4,1.6,4,4v16C256,112,254.4,113.6,252,113.6z M308,112.8c-1.6,0-2.4-0.8-3.2-1.6l-8-13.6
		c-0.8-1.6-0.8-4,1.6-5.6c1.6-0.8,4-0.8,5.6,1.6l8,13.6c0.8,1.6,0.8,4-1.6,5.6C309.6,112,308.8,112.8,308,112.8z M292,84.8
		c-1.6,0-2.4-0.8-3.2-1.6l-8-13.6c-0.8-1.6-0.8-4,1.6-5.6c1.6-0.8,4-0.8,5.6,1.6l8,13.6c0.8,1.6,0.8,4-1.6,5.6
		C293.6,84.8,292.8,84.8,292,84.8z M252,81.6c-2.4,0-4-1.6-4-4v-16c0-2.4,1.6-4,4-4s4,1.6,4,4v16C256,80,254.4,81.6,252,81.6z
		 M276,57.6c-1.6,0-2.4-0.8-3.2-1.6l-8-13.6c-0.8-1.6-0.8-4,1.6-5.6c1.6-1.6,4-0.8,4.8,0.8l8,13.6c0.8,1.6,0.8,4-1.6,5.6
		C277.6,56.8,276.8,57.6,276,57.6z M252,49.6c-2.4,0-4-1.6-4-4v-16c0-2.4,1.6-4,4-4s4,1.6,4,4v16C256,48,254.4,49.6,252,49.6z
		 M260,29.6c-1.6,0-2.4-0.8-3.2-1.6l-6.4-11.2c-0.8-0.8-1.6-1.6-1.6-3.2v-0.8c0-1.6,1.6-3.2,3.2-4s3.2,0,4.8,1.6l8,12.8
		c0.8,1.6,0.8,4-1.6,5.6C260.8,29.6,260,29.6,260,29.6z"/>
	<path style="fill:#C3D7DD;" d="M461.6,372.8h-12c-2.4,0-4-1.6-4-4s1.6-4,4-4h5.6c0.8-1.6,3.2-2.4,5.6-1.6l3.2,1.6
		c1.6,0.8,2.4,2.4,1.6,4.8C464.8,372,463.2,372.8,461.6,372.8z M432.8,372.8h-16c-2.4,0-4-1.6-4-4s1.6-4,4-4h16c2.4,0,4,1.6,4,4
		C436.8,371.2,435.2,372.8,432.8,372.8z M400.8,372.8h-16c-2.4,0-4-1.6-4-4s1.6-4,4-4h16c2.4,0,4,1.6,4,4
		C404.8,371.2,403.2,372.8,400.8,372.8z M368.8,372.8h-16c-2.4,0-4-1.6-4-4s1.6-4,4-4h16c2.4,0,4,1.6,4,4
		C372.8,371.2,371.2,372.8,368.8,372.8z M336.8,372.8h-16c-2.4,0-4-1.6-4-4s1.6-4,4-4h16c2.4,0,4,1.6,4,4
		C340.8,371.2,339.2,372.8,336.8,372.8z M304.8,372.8h-16c-2.4,0-4-1.6-4-4s1.6-4,4-4h16c2.4,0,4,1.6,4,4
		C308.8,371.2,307.2,372.8,304.8,372.8z M272.8,372.8h-16c-2.4,0-4-1.6-4-4s1.6-4,4-4h16c2.4,0,4,1.6,4,4
		C276.8,371.2,275.2,372.8,272.8,372.8z M240.8,372.8h-16c-2.4,0-4-1.6-4-4s1.6-4,4-4h16c2.4,0,4,1.6,4,4
		C244.8,371.2,243.2,372.8,240.8,372.8z M208.8,372.8h-16c-2.4,0-4-1.6-4-4s1.6-4,4-4h16c2.4,0,4,1.6,4,4
		C212.8,371.2,211.2,372.8,208.8,372.8z M176.8,372.8h-16c-2.4,0-4-1.6-4-4s1.6-4,4-4h16c2.4,0,4,1.6,4,4
		C180.8,371.2,179.2,372.8,176.8,372.8z M144.8,372.8h-16c-2.4,0-4-1.6-4-4s1.6-4,4-4h16c2.4,0,4,1.6,4,4
		C148.8,371.2,147.2,372.8,144.8,372.8z M112.8,372.8h-16c-2.4,0-4-1.6-4-4s1.6-4,4-4h16c2.4,0,4,1.6,4,4
		C116.8,371.2,115.2,372.8,112.8,372.8z M80.8,372.8h-16c-2.4,0-4-1.6-4-4s1.6-4,4-4h16c2.4,0,4,1.6,4,4
		C84.8,371.2,83.2,372.8,80.8,372.8z M48.8,372.8h-6.4c-1.6,0-3.2-1.6-4-3.2s0-3.2,1.6-4.8l13.6-8c1.6-0.8,4-0.8,5.6,1.6
		c0.8,1.6,0.8,4-1.6,5.6l-5.6,3.2c0,0.8,0,0.8,0,1.6C52.8,371.2,51.2,372.8,48.8,372.8z M444,363.2c-0.8,0-1.6,0-1.6-0.8l-13.6-8
		c-1.6-0.8-2.4-3.2-1.6-5.6c0.8-1.6,3.2-2.4,5.6-1.6l13.6,8c1.6,0.8,2.4,3.2,1.6,5.6C447.2,362.4,445.6,363.2,444,363.2z
		 M70.4,356.8c-1.6,0-2.4-0.8-3.2-1.6c-0.8-1.6-0.8-4,1.6-5.6l13.6-8c1.6-0.8,4-0.8,5.6,1.6c0.8,1.6,0.8,4-1.6,5.6l-13.6,8
		C72,356.8,71.2,356.8,70.4,356.8z M416.8,347.2c-0.8,0-1.6,0-1.6-0.8l-13.6-8c-1.6-0.8-2.4-3.2-1.6-5.6c0.8-1.6,3.2-2.4,5.6-1.6
		l13.6,8c1.6,0.8,2.4,3.2,1.6,5.6C419.2,346.4,418.4,347.2,416.8,347.2z M97.6,340.8c-1.6,0-2.4-0.8-3.2-1.6c-0.8-1.6-0.8-4,1.6-5.6
		l13.6-8c1.6-0.8,4-0.8,5.6,1.6c0.8,1.6,0.8,4-1.6,5.6l-13.6,8C99.2,340.8,98.4,340.8,97.6,340.8z M388.8,331.2
		c-0.8,0-1.6,0-1.6-0.8l-13.6-8c-1.6-0.8-2.4-3.2-1.6-5.6c0.8-1.6,3.2-2.4,5.6-1.6l13.6,8c1.6,0.8,2.4,3.2,1.6,5.6
		C392,330.4,390.4,331.2,388.8,331.2z M125.6,324.8c-1.6,0-2.4-0.8-3.2-1.6c-0.8-1.6-0.8-4,1.6-5.6l13.6-8c1.6-0.8,4-0.8,5.6,1.6
		c0.8,1.6,0.8,4-1.6,5.6l-13.6,8C127.2,324.8,126.4,324.8,125.6,324.8z M361.6,315.2c-0.8,0-1.6,0-1.6-0.8l-13.6-8
		c-1.6-0.8-2.4-3.2-1.6-5.6c0.8-1.6,3.2-2.4,5.6-1.6l13.6,8c1.6,0.8,2.4,3.2,1.6,5.6C364,314.4,362.4,315.2,361.6,315.2z
		 M153.6,308.8c-1.6,0-2.4-0.8-3.2-1.6c-0.8-1.6-0.8-4,1.6-5.6l13.6-8c1.6-0.8,4-0.8,5.6,1.6c0.8,1.6,0.8,4-1.6,5.6l-13.6,8
		C154.4,308.8,154.4,308.8,153.6,308.8z M333.6,299.2c-0.8,0-1.6,0-1.6-0.8l-13.6-8c-1.6-0.8-2.4-3.2-1.6-5.6
		c0.8-1.6,3.2-2.4,5.6-1.6l13.6,8c1.6,0.8,2.4,3.2,1.6,5.6C336,298.4,335.2,299.2,333.6,299.2z M180.8,292.8c-1.6,0-2.4-0.8-3.2-1.6
		c-0.8-1.6-0.8-4,1.6-5.6l13.6-8c1.6-0.8,4-0.8,5.6,1.6c0.8,1.6,0.8,4-1.6,5.6l-13.6,8C182.4,292.8,181.6,292.8,180.8,292.8z
		 M305.6,283.2c-0.8,0-1.6,0-1.6-0.8l-13.6-8c-1.6-0.8-2.4-3.2-1.6-5.6c0.8-1.6,3.2-2.4,5.6-1.6l13.6,8c1.6,0.8,2.4,3.2,1.6,5.6
		C308.8,282.4,307.2,283.2,305.6,283.2z M208.8,276.8c-1.6,0-2.4-0.8-3.2-1.6c-0.8-1.6-0.8-4,1.6-5.6l13.6-8c1.6-0.8,4-0.8,5.6,1.6
		c0.8,1.6,0.8,4-1.6,5.6l-13.6,8C210.4,276.8,209.6,276.8,208.8,276.8z M278.4,267.2c-0.8,0-1.6,0-1.6-0.8l-13.6-8
		c-1.6-0.8-2.4-3.2-1.6-5.6c0.8-1.6,3.2-2.4,5.6-1.6l13.6,8c1.6,0.8,2.4,3.2,1.6,5.6C280.8,266.4,279.2,267.2,278.4,267.2z
		 M236.8,260.8c-1.6,0-2.4-0.8-3.2-1.6c-0.8-1.6-0.8-4,1.6-5.6l13.6-8c1.6-0.8,4-0.8,5.6,1.6c0.8,1.6,0.8,4-1.6,5.6l-13.6,8
		C237.6,260.8,237.6,260.8,236.8,260.8z"/>
</g>
<g>
	<path style="fill:#973FBC;" d="M252,504C112.8,504,0,391.2,0,252S112.8,0,252,0s252,112.8,252,252S391.2,504,252,504z M252,16
		C121.6,16,16,121.6,16,252s105.6,236,236,236s236-105.6,236-236S382.4,16,252,16z"/>
	<path style="fill:#973FBC;" d="M149.6,318.4c-2.4,0-4-0.8-5.6-2.4c-2.4-2.4-3.2-6.4-1.6-9.6L244.8,132c1.6-3.2,5.6,0.8,8.8,1.6
		c3.2,0.8,5.6-0.8,5.6,2.4v115.2c0,3.2-1.6,5.6-4,7.2l-102.4,59.2C152.8,317.6,151.2,318.4,149.6,318.4z M244,165.6L172,288l72-41.6
		V165.6z"/>
	<path style="fill:#973FBC;" d="M354.4,318.4c-1.6,0-2.4,0-4-0.8L248,258.4c-2.4-1.6-4-4-4-7.2V136.8c0-4,2.4-4,5.6-4.8
		s7.2-2.4,8.8,0.8l102.4,173.6c1.6,3.2,1.6,7.2-1.6,9.6C358.4,317.6,356,318.4,354.4,318.4z M260,246.4l72,41.6l-72-122.4V246.4z"/>
	<path style="fill:#973FBC;" d="M354.4,318.4L354.4,318.4H149.6c-4,0-6.4-2.4-8-5.6s0.8-7.2,4-8.8L248,244c2.4-1.6,5.6-1.6,8,0
		l101.6,58.4c3.2,0.8,4.8,4,4.8,7.2C362.4,314.4,358.4,318.4,354.4,318.4z M180,302.4h144l-72-41.6L180,302.4z"/>
	<path style="fill:#973FBC;" d="M252,501.6c-3.2,0-5.6-1.6-7.2-4L36,140.8c-1.6-2.4-1.6-5.6,0-8s4-4,7.2-4h419.2
		c3.2,0,5.6,1.6,7.2,4s1.6,5.6,0,8L259.2,497.6C257.6,500,255.2,501.6,252,501.6z M56.8,144.8L252,477.6l195.2-332.8L56.8,144.8
		L56.8,144.8z"/>
</g>
<g>
</g>
<g>
</g>
<g>
</g>
<g>
</g>
<g>
</g>
<g>
</g>
<g>
</g>
<g>
</g>
<g>
</g>
<g>
</g>
<g>
</g>
<g>
</g>
<g>
</g>
<g>
</g>
<g>
</g>
</svg>
